<mxfile host="app.diagrams.net" modified="2023-12-21T20:29:19.966Z" agent="Mozilla/5.0 (Macintosh; Intel Mac OS X 10_15_7) AppleWebKit/537.36 (KHTML, like Gecko) Chrome/118.0.5993.806 YaBrowser/23.11.2.806 Yowser/2.5 Safari/537.36" version="22.1.11" etag="CKGLh9Q7uQkzpLZKcQ9q" type="github">
  <diagram name="Страница — 1" id="5hGcMOGZf2VIPMHqFHNL">
    <mxGraphModel>
      <root>
        <mxCell id="0" />
        <mxCell id="1" parent="0" />
      </root>
    </mxGraphModel>
  </diagram>
</mxfile>
